<?xml version="1.0" standalone="no"?>
<!DOCTYPE svg PUBLIC "-//W3C//DTD SVG 20010904//EN"
 "http://www.w3.org/TR/2001/REC-SVG-20010904/DTD/svg10.dtd">
<svg version="1.0" xmlns="http://www.w3.org/2000/svg"
 width="896.000000pt" height="1152.000000pt" viewBox="0 0 896.000000 1152.000000"
 preserveAspectRatio="xMidYMid meet">

<g transform="translate(0.000000,1152.000000) scale(0.100000,-0.100000)"
fill="#000000" stroke="none">
<path d="M0 5760 l0 -5760 4480 0 4480 0 0 5760 0 5760 -4480 0 -4480 0 0
-5760z m4620 2911 c0 -6 5 -11 11 -11 5 0 7 -5 4 -10 -3 -6 1 -13 9 -16 9 -3
16 -10 16 -15 0 -13 83 -149 91 -149 11 0 90 -160 84 -170 -3 -5 3 -13 12 -19
10 -6 14 -11 9 -11 -4 0 -1 -12 9 -26 9 -14 14 -28 12 -30 -3 -3 6 -35 20 -72
20 -54 26 -92 30 -194 5 -117 4 -134 -20 -211 -15 -46 -38 -99 -51 -118 -14
-19 -37 -52 -51 -74 -15 -22 -37 -46 -49 -51 -11 -6 -42 -23 -67 -36 -39 -22
-127 -48 -161 -48 -7 0 -9 20 -4 63 4 34 9 85 11 112 2 28 20 119 40 204 19
85 35 163 35 173 0 10 5 18 11 18 6 0 8 8 4 19 -3 11 0 21 8 24 9 3 13 26 13
81 -1 44 3 76 9 77 6 0 4 3 -2 6 -8 3 -13 24 -13 56 0 56 -8 97 -19 97 -4 0
-12 -44 -18 -97 -12 -97 -60 -275 -88 -330 -8 -15 -15 -37 -15 -48 0 -11 -14
-69 -30 -130 -24 -88 -30 -130 -30 -212 l0 -103 -23 9 c-31 12 -70 44 -140
116 -66 67 -97 120 -97 165 0 16 -4 30 -8 30 -4 0 -8 8 -9 18 -11 109 -11 125
-4 92 7 -30 9 -26 10 31 0 37 5 90 11 118 12 66 74 197 100 213 11 7 20 17 20
21 0 5 14 26 30 47 17 21 30 45 30 54 0 10 5 13 17 9 11 -4 14 -3 9 5 -8 13
61 112 78 112 17 0 60 42 64 61 2 7 -8 1 -22 -16 -16 -19 -5 10 32 86 46 95
58 114 69 103 7 -7 13 -17 13 -23z m-120 -21 c0 -5 -6 -13 -13 -17 -7 -4 -18
-20 -24 -35 -7 -16 -17 -28 -23 -28 -5 0 -10 -6 -10 -14 0 -8 -11 -23 -25 -34
-14 -11 -25 -27 -25 -36 0 -9 -7 -16 -15 -16 -8 0 -14 3 -14 8 4 21 -3 31 -16
26 -12 -5 -13 -10 -4 -20 8 -10 6 -14 -13 -18 -12 -3 -30 -5 -38 -5 -8 0 -28
-2 -45 -5 -16 -3 -22 -3 -13 0 10 3 15 11 11 20 -5 13 -7 13 -14 2 -6 -8 -9
-9 -9 -1 0 17 -38 3 -43 -16 -3 -14 -22 -20 -83 -29 -44 -6 -110 -17 -149 -26
-80 -17 -110 -23 -174 -32 -25 -3 -53 -12 -61 -19 -20 -16 -121 -56 -148 -58
-12 -1 -22 -4 -22 -8 0 -6 -83 -41 -107 -45 -24 -4 -124 -53 -139 -69 -16 -16
-49 -20 -57 -7 -2 4 -2 1 -1 -5 2 -7 0 -13 -4 -13 -5 0 -19 -10 -31 -21 -13
-12 -43 -32 -68 -44 -66 -34 -327 -225 -306 -225 4 0 -9 -11 -29 -25 -20 -14
-42 -25 -48 -25 -6 0 -9 -4 -6 -9 3 -4 -27 -39 -67 -77 -83 -79 -167 -174
-167 -190 0 -6 -18 -27 -39 -47 -21 -20 -56 -64 -76 -99 -21 -35 -43 -67 -49
-73 -15 -13 -76 -110 -76 -120 0 -4 -11 -22 -23 -39 -13 -17 -32 -49 -41 -71
-10 -22 -24 -51 -32 -65 -39 -67 -75 -143 -70 -147 3 -3 -6 -26 -19 -52 -14
-25 -25 -55 -26 -66 0 -11 -12 -54 -27 -95 l-27 -75 -98 -3 -99 -3 7 23 c4 13
14 38 21 57 8 18 14 44 14 57 0 12 4 25 9 28 4 3 11 21 14 40 3 19 18 55 32
81 26 44 44 51 46 17 0 -14 2 -13 9 3 13 31 12 48 -4 42 -18 -7 -7 42 23 101
12 23 19 48 15 54 -4 6 -3 8 3 5 12 -8 26 20 17 34 -3 5 0 9 5 9 6 0 11 5 11
11 0 20 53 80 67 75 7 -3 13 -1 13 3 0 5 -5 11 -11 13 -12 4 17 62 85 167 22
36 41 67 41 70 0 3 8 17 18 31 10 15 17 19 17 10 0 -8 6 -3 14 12 23 43 79
113 173 216 49 53 87 100 85 104 -1 5 2 7 7 4 5 -4 43 28 85 70 41 42 80 73
85 69 6 -3 11 1 11 9 0 9 3 16 8 16 4 0 30 22 57 48 66 62 93 76 113 60 9 -8
13 -8 9 -2 -10 17 20 46 100 98 39 25 79 53 87 61 8 9 32 23 53 31 64 26 238
108 243 116 10 13 114 57 122 52 5 -3 32 3 61 15 41 16 124 41 205 62 22 5 42
12 87 29 28 11 68 21 90 24 22 3 63 10 90 16 28 6 84 13 125 15 41 2 104 8
140 13 92 13 200 14 200 2z m375 -27 c39 -3 78 -9 87 -14 9 -5 32 -9 51 -9 18
0 37 -3 41 -7 4 -5 11 -8 14 -9 4 0 15 -4 25 -7 41 -16 53 -20 62 -22 74 -17
141 -38 158 -50 12 -8 33 -15 48 -15 36 0 159 -38 159 -50 0 -4 20 -16 45 -26
25 -9 45 -21 45 -27 0 -6 3 -8 6 -4 4 3 27 -5 53 -18 25 -14 49 -25 53 -25 4
0 29 -13 55 -30 26 -16 55 -30 65 -30 10 0 18 -4 18 -8 0 -8 111 -83 188 -128
17 -10 32 -22 32 -27 0 -4 4 -6 8 -3 5 3 22 -9 38 -26 16 -17 41 -38 56 -48
16 -9 46 -33 68 -54 22 -20 40 -34 40 -32 0 3 21 -15 48 -40 26 -25 47 -50 47
-55 0 -5 3 -9 7 -10 11 -1 104 -94 100 -101 -1 -4 3 -10 10 -15 17 -10 96
-105 136 -163 17 -25 42 -55 55 -68 14 -12 28 -33 31 -47 6 -25 22 -48 59 -87
9 -10 17 -22 17 -27 0 -5 4 -11 9 -13 15 -5 72 -109 66 -119 -4 -5 -1 -9 6 -9
7 0 9 -3 6 -7 -4 -3 1 -12 11 -20 9 -8 12 -12 6 -9 -13 6 51 -125 66 -134 13
-8 70 -150 70 -175 0 -23 59 -196 71 -209 5 -6 9 -23 9 -38 l0 -28 -94 0 -93
0 -17 58 c-9 32 -16 69 -16 81 0 13 -8 35 -18 49 -10 15 -26 47 -35 72 -9 25
-22 59 -28 75 -7 17 -13 36 -15 44 -1 8 -6 17 -11 20 -8 6 -14 18 -47 96 -10
22 -31 61 -47 86 -16 25 -31 62 -34 83 -2 22 -7 42 -11 45 -4 3 -4 -4 -1 -16
3 -13 2 -23 -2 -23 -13 0 -42 60 -35 72 4 6 3 8 -3 5 -15 -10 -35 17 -27 37 4
10 -2 23 -15 35 -11 10 -17 22 -13 26 4 5 2 6 -3 2 -6 -3 -21 1 -35 9 -14 7
-21 13 -17 14 5 0 -10 22 -33 50 -23 27 -39 53 -36 58 3 5 -6 14 -20 21 -14 6
-46 35 -72 63 -52 58 -92 98 -140 141 -18 16 -29 34 -25 39 3 6 1 8 -5 5 -5
-4 -26 8 -44 25 -49 47 -115 98 -127 98 -5 0 -13 9 -16 20 -3 11 -10 20 -15
20 -4 0 -6 10 -2 22 3 14 2 19 -6 14 -7 -4 -12 -1 -12 9 0 9 -4 14 -8 11 -4
-2 -14 -1 -22 4 -9 5 -19 5 -27 -2 -9 -7 -13 -7 -13 1 0 7 -5 9 -10 6 -22 -14
-92 47 -84 73 4 10 3 13 -3 6 -8 -10 -53 -14 -53 -4 0 3 -16 14 -35 24 -24 13
-31 22 -23 27 11 7 -64 33 -129 45 -15 3 -35 11 -43 18 -23 21 -99 55 -137 62
-18 3 -33 12 -33 20 0 7 -4 16 -10 19 -6 4 -7 -1 -4 -12 5 -17 5 -17 -9 -1 -8
10 -17 15 -20 11 -4 -3 -7 -2 -7 3 0 5 -15 10 -33 11 -19 2 -52 10 -73 20 -21
9 -54 15 -71 14 -18 -1 -59 5 -90 15 -32 9 -68 16 -80 15 -13 -1 -23 3 -23 9
0 6 -4 8 -10 5 -5 -3 -10 -2 -10 3 0 6 -8 9 -17 8 -13 -1 -18 6 -17 21 1 13
-3 20 -9 16 -6 -4 -8 0 -4 10 4 12 1 15 -14 12 -11 -2 -17 0 -13 6 3 5 -6 19
-20 30 -15 11 -24 24 -21 29 3 5 -3 11 -12 15 -10 3 -27 17 -37 32 l-19 26 49
-7 c27 -3 81 -9 119 -13z m593 -1215 l52 -3 -6 -30 c-3 -16 -19 -63 -35 -103
-16 -41 -27 -78 -23 -83 3 -5 -8 -34 -25 -64 -17 -30 -28 -55 -25 -55 9 0 -34
-75 -61 -105 -14 -16 -35 -46 -45 -65 -10 -19 -33 -49 -52 -66 -29 -28 -145
-107 -158 -109 -3 0 -10 -3 -16 -7 -14 -9 -192 -14 -200 -5 -4 4 -1 14 7 24
10 12 10 15 1 9 -7 -4 -29 -9 -48 -11 -29 -2 -34 1 -30 14 4 11 2 10 -9 -3 -8
-11 -15 -14 -15 -8 0 7 -7 12 -15 12 -14 0 -32 26 -31 46 1 15 33 44 40 36 4
-3 9 4 13 16 3 12 10 22 15 22 5 0 6 -5 2 -12 -4 -7 -3 -8 5 -4 6 4 9 11 6 16
-6 9 38 46 142 117 40 28 70 52 68 55 -3 3 19 16 47 30 29 15 64 38 77 52 14
14 30 26 37 26 7 0 16 5 20 12 5 7 2 8 -7 3 -21 -12 0 7 43 38 20 15 41 27 47
27 6 0 19 10 31 22 17 19 18 23 5 31 -10 5 -26 0 -48 -16 -17 -14 -54 -36 -82
-49 -27 -13 -80 -41 -117 -62 -38 -21 -68 -35 -68 -32 0 8 -48 -22 -77 -48
-13 -11 -23 -15 -23 -10 0 5 -4 4 -8 -3 -4 -6 -29 -26 -57 -45 -27 -19 -72
-49 -98 -67 -27 -18 -52 -44 -57 -56 -11 -28 -26 -39 -32 -22 -15 41 -7 128
16 180 25 58 83 149 98 155 5 2 14 9 21 15 78 75 161 127 199 127 13 0 34 7
46 16 12 8 48 18 79 20 31 3 62 8 67 13 6 5 47 9 91 10 43 1 81 4 84 6 2 3 16
3 30 0 14 -2 50 -5 79 -7z m-1533 -22 c129 -32 181 -49 200 -65 11 -10 35 -24
53 -31 17 -7 32 -16 32 -20 0 -3 20 -21 44 -38 24 -17 53 -49 64 -69 76 -145
82 -159 82 -205 0 -27 -4 -48 -9 -48 -5 0 -12 -10 -14 -22 -4 -19 -4 -18 -6 5
0 17 -5 26 -11 22 -6 -4 -25 6 -43 22 -18 16 -47 35 -64 42 -21 8 -30 18 -26
27 3 8 2 14 -3 12 -5 -1 -19 3 -30 10 -12 6 -25 8 -29 4 -5 -4 -6 -2 -3 3 7
12 -17 37 -26 28 -3 -4 -6 -1 -6 5 0 6 -7 9 -17 5 -10 -4 -14 -2 -10 4 5 7 -1
9 -15 5 -14 -3 -19 -1 -14 6 7 12 -27 35 -38 25 -3 -3 -6 1 -6 9 0 9 -7 21
-15 28 -8 7 -15 8 -15 3 0 -15 -49 -7 -69 11 -10 9 -32 21 -49 27 -18 6 -32
15 -32 21 0 5 5 6 12 2 6 -4 8 -3 5 4 -4 5 -16 8 -27 5 -11 -3 -31 2 -43 10
-13 9 -41 22 -61 31 l-38 16 29 -34 c15 -19 34 -35 40 -35 7 -1 27 -17 44 -36
18 -19 36 -35 41 -35 5 0 21 -11 35 -24 14 -13 37 -30 52 -38 14 -7 28 -16 31
-20 3 -4 24 -18 47 -30 23 -13 80 -51 128 -85 48 -35 93 -63 101 -63 8 0 14
-5 14 -10 0 -6 11 -16 25 -22 14 -6 25 -16 25 -21 0 -5 7 -15 15 -21 12 -9 10
-16 -14 -42 -28 -31 -57 -46 -93 -49 -10 -1 -18 2 -18 7 0 4 5 8 10 8 6 0 10
4 10 9 0 5 -9 7 -20 4 -11 -3 -18 -9 -15 -13 3 -5 0 -12 -6 -16 -7 -4 -9 -3
-5 4 10 17 -10 23 -24 7 -7 -9 -29 -15 -52 -15 -36 0 -38 2 -28 20 9 16 8 20
-5 20 -8 0 -15 -6 -15 -12 -1 -7 -9 -3 -19 9 -17 20 -20 21 -26 6 -5 -15 -7
-15 -15 -3 -8 13 -10 12 -10 -3 0 -33 -62 -9 -130 52 -19 17 -39 35 -45 40
-53 43 -110 130 -113 171 0 13 -8 30 -17 36 -12 9 -13 13 -3 16 11 4 10 8 -1
21 -7 9 -17 14 -22 11 -5 -3 -9 -3 -9 0 0 2 -3 13 -6 23 -5 15 -4 15 5 3 7 -9
11 -11 11 -3 0 7 -7 16 -15 20 -34 19 -117 224 -94 232 7 2 6 7 -2 13 -11 7
-9 8 6 7 11 -1 31 3 45 10 33 15 255 7 335 -13z m578 -42 c-8 -4 -9 -15 -2
-37 10 -37 10 -250 0 -287 l-7 -25 -7 30 c-3 17 -5 96 -5 178 1 127 4 147 17
146 9 0 11 -3 4 -5z m1 -539 c2 -27 5 -54 5 -60 1 -5 25 14 54 43 49 48 77 64
77 43 0 -8 -56 -62 -108 -103 -14 -12 -22 -29 -22 -50 0 -18 -5 -40 -10 -48
-7 -11 -10 -5 -11 25 -3 83 -8 100 -38 126 -38 31 -39 43 -6 35 21 -5 25 -3
25 17 0 13 3 27 7 30 12 13 22 -8 27 -58z m-2511 -550 c65 -17 147 -56 166
-79 13 -15 -2 -44 -51 -102 l-18 -20 -62 30 c-54 27 -73 31 -143 31 -69 0 -86
-4 -127 -28 -80 -47 -118 -124 -118 -240 0 -194 155 -309 348 -258 l42 12 0
74 0 75 -70 0 -71 0 3 68 3 67 141 3 142 3 3 -93 c2 -51 2 -138 -1 -193 l-5
-100 -66 -27 c-36 -15 -106 -33 -155 -39 -77 -10 -100 -10 -166 5 -130 29
-228 106 -285 226 -35 74 -44 217 -18 306 61 214 285 337 508 279z m3098 -27
c73 -33 116 -80 135 -147 34 -116 -16 -240 -122 -299 -14 -8 -9 -21 43 -103
82 -130 133 -215 133 -223 0 -4 -39 -5 -87 -4 l-87 3 -85 143 -84 142 -54 0
-53 0 0 -145 0 -145 -80 0 -80 0 0 406 0 406 183 -4 c169 -4 186 -6 238 -30z
m1739 -113 l0 -85 70 0 70 0 0 -60 0 -60 -70 0 -70 0 0 -154 c0 -183 4 -191
82 -184 48 5 48 5 58 -31 20 -77 19 -84 -25 -97 -91 -28 -177 -12 -226 42 -42
46 -49 84 -49 260 l0 164 -45 0 -45 0 0 60 0 60 44 0 c42 0 44 1 50 38 3 20 6
58 6 85 l0 47 75 0 75 0 0 -85z m-4139 -140 c-1 -38 -5 -73 -7 -77 -3 -4 -30
-8 -60 -8 -63 0 -94 -16 -124 -65 -18 -29 -20 -49 -20 -204 l0 -171 -80 0 -80
0 2 293 3 292 66 3 c75 3 78 -1 79 -83 l1 -40 16 30 c36 70 94 106 162 102
l45 -2 -3 -70z m424 54 c98 -36 165 -149 165 -276 l0 -53 -196 0 -196 0 7 -32
c4 -18 13 -43 21 -55 36 -57 144 -74 221 -34 23 11 48 21 55 21 16 0 68 -51
68 -67 0 -21 -79 -72 -139 -89 -146 -43 -305 25 -365 155 -29 63 -30 228 -2
281 78 146 217 203 361 149z m591 6 c107 -32 173 -127 182 -261 l5 -74 -197 0
-197 0 6 -22 c16 -57 30 -79 61 -99 48 -29 119 -27 191 5 61 29 56 31 100 -33
17 -23 16 -25 -20 -56 -48 -42 -113 -60 -207 -59 -57 0 -86 6 -120 23 -126 64
-181 181 -159 336 11 78 28 117 78 168 75 80 170 104 277 72z m685 4 c44 -15
76 -44 102 -94 20 -37 22 -57 25 -267 l3 -228 -80 0 -81 0 0 200 c0 218 -5
243 -53 260 -40 13 -53 13 -91 -5 -60 -29 -66 -51 -66 -264 l0 -191 -80 0 -80
0 2 293 3 292 50 1 c74 1 82 -3 89 -42 l7 -35 42 36 c61 52 135 68 208 44z
m1350 -26 c99 -55 155 -156 154 -278 -1 -121 -56 -215 -156 -270 -47 -26 -65
-29 -134 -30 -68 0 -89 4 -137 28 -108 53 -161 146 -161 282 -1 117 44 204
134 260 55 35 96 45 175 41 58 -2 83 -9 125 -33z m642 7 c83 -43 127 -100 152
-199 33 -127 -10 -258 -110 -333 -89 -67 -217 -75 -317 -21 -162 88 -203 322
-83 479 27 35 78 70 134 91 52 19 171 10 224 -17z m1015 -5 c34 -15 62 -34 62
-41 0 -10 -39 -77 -54 -92 -2 -1 -25 9 -51 23 -59 31 -117 33 -145 5 -11 -11
-20 -23 -20 -28 0 -26 40 -54 115 -83 46 -17 101 -46 121 -63 33 -28 38 -39
42 -88 6 -74 -11 -121 -60 -162 -74 -64 -204 -72 -312 -21 -78 37 -80 43 -44
98 l30 47 57 -30 c75 -40 152 -42 177 -5 31 48 12 66 -124 115 -79 29 -126 72
-142 129 -46 173 151 284 348 196z m-5381 -965 c9 0 13 -6 9 -15 -3 -8 -1 -15
5 -15 6 0 7 -4 4 -10 -3 -5 -2 -10 4 -10 14 0 25 -57 23 -115 -1 -34 1 -45 7
-36 8 12 13 9 28 -17 10 -18 22 -32 26 -32 5 0 6 -4 2 -9 -3 -5 1 -16 9 -23
15 -16 98 -178 90 -178 -2 0 2 -13 11 -30 9 -16 14 -30 11 -30 -2 0 10 -15 27
-33 39 -40 67 -75 67 -83 0 -12 66 -100 129 -172 96 -111 307 -322 321 -322 7
0 22 -11 34 -24 35 -40 116 -96 138 -96 20 0 95 53 130 91 9 11 31 21 50 23
19 3 45 9 58 15 26 10 171 34 204 33 11 -1 28 4 39 10 11 5 34 12 51 15 17 3
50 11 73 19 22 8 55 16 72 18 33 4 72 25 113 63 27 26 32 27 61 12 11 -6 17
-6 17 1 0 5 -4 10 -10 10 -14 0 -13 27 2 36 7 4 8 3 4 -4 -5 -8 -2 -10 9 -6 9
4 14 11 13 16 -4 12 56 78 71 78 15 0 81 40 128 77 23 18 44 33 48 33 3 0 14
7 23 16 14 15 17 15 29 -2 7 -10 13 -13 13 -8 0 6 -4 14 -10 20 -7 7 5 34 34
82 25 40 43 72 40 72 -6 0 46 81 63 98 7 7 13 20 13 28 0 8 4 14 9 14 6 0 15
27 22 61 8 43 16 59 25 55 7 -3 16 0 20 6 4 6 3 8 -3 5 -6 -4 -17 1 -24 10 -8
9 -9 14 -3 10 21 -13 64 107 64 179 l0 65 109 -2 108 -1 7 -132 c4 -72 7 -142
7 -156 -2 -29 1 -36 55 -145 21 -44 57 -100 79 -125 22 -25 53 -61 69 -80 15
-19 25 -28 21 -20 -4 8 20 -14 54 -50 34 -35 72 -71 85 -80 13 -8 47 -43 77
-77 70 -80 133 -128 187 -143 23 -6 42 -15 42 -20 0 -5 13 -5 30 0 17 5 30 5
30 0 0 -5 9 -7 20 -5 12 2 40 -4 63 -14 23 -10 62 -21 86 -25 24 -4 49 -10 55
-14 6 -4 27 -8 46 -9 48 -2 85 -9 98 -16 5 -4 29 -8 51 -9 23 -1 46 -7 52 -15
6 -7 16 -13 21 -13 6 0 33 -18 61 -41 57 -45 72 -45 133 -4 20 14 46 25 56 25
12 0 18 5 15 13 -6 16 92 109 107 100 6 -4 5 1 -3 10 -12 15 -12 17 1 12 9 -4
18 1 22 10 3 9 11 13 16 10 6 -4 9 -1 8 7 -2 7 3 12 9 11 7 -2 12 1 10 5 -1 5
24 38 56 73 84 94 160 189 151 189 -5 0 2 7 14 16 13 9 29 13 36 11 9 -4 12 0
9 12 -5 20 11 53 80 159 52 80 107 187 107 209 0 7 5 13 10 13 6 0 10 9 10 20
0 11 5 20 11 20 5 0 8 4 5 9 -3 4 1 17 9 27 8 10 15 29 15 41 0 12 7 28 15 36
8 8 11 18 7 21 -3 4 -2 10 4 14 5 4 17 23 27 42 9 19 17 29 17 23 0 -7 4 -13
9 -13 5 0 7 13 6 30 -3 37 8 41 104 39 61 -1 71 -4 67 -18 -3 -9 -8 -34 -12
-56 -3 -22 -14 -56 -24 -76 -10 -19 -28 -64 -40 -98 -26 -78 -105 -233 -114
-224 -3 3 -6 1 -6 -6 0 -7 -3 -10 -7 -8 -5 3 -8 -8 -9 -24 -1 -16 -16 -53 -34
-82 -19 -28 -53 -84 -77 -124 -24 -40 -65 -95 -89 -123 -25 -27 -43 -50 -41
-50 3 0 -25 -32 -63 -72 -38 -40 -66 -76 -63 -82 3 -5 1 -6 -4 -3 -6 4 -17 -1
-24 -10 -12 -14 -12 -16 1 -8 13 8 13 6 2 -8 -8 -9 -17 -15 -21 -14 -4 1 -45
-35 -90 -81 -46 -46 -85 -81 -88 -78 -2 2 -21 -13 -40 -35 -33 -36 -73 -55
-57 -26 5 9 4 9 -6 0 -8 -7 -20 -8 -34 -3 -26 10 -107 33 -121 34 -17 2 -5
-45 27 -101 16 -29 31 -64 32 -77 2 -13 16 -36 32 -50 17 -15 22 -24 12 -20
-10 3 -18 1 -18 -5 0 -6 7 -12 15 -12 8 -1 21 -2 28 -3 6 0 12 -11 13 -23 1
-14 -3 -20 -12 -16 -8 3 -14 11 -14 19 0 8 -5 14 -11 14 -5 0 -7 -4 -4 -10 3
-6 -1 -7 -9 -4 -9 3 -13 11 -9 17 4 6 0 8 -10 4 -10 -4 -21 2 -30 16 -15 23
-32 76 -28 90 1 5 -2 6 -7 3 -4 -2 -17 12 -28 32 -10 20 -37 61 -59 91 -22 30
-39 59 -37 65 2 6 0 8 -4 4 -4 -4 -24 8 -46 27 -34 32 -58 41 -95 36 -8 -1
-10 5 -7 16 5 17 5 17 -6 1 -9 -15 -27 -18 -109 -18 -75 0 -100 -3 -104 -14
-5 -13 13 -46 40 -74 7 -7 13 -16 13 -20 0 -4 15 -23 33 -43 84 -93 94 -109
106 -172 7 -34 17 -75 23 -90 6 -15 8 -30 5 -33 -3 -3 -27 38 -53 92 -40 84
-59 110 -140 192 -52 52 -91 98 -89 102 3 5 1 11 -5 15 -6 4 -8 11 -4 16 3 5
0 8 -7 7 -7 -2 -13 3 -14 11 0 9 -15 15 -43 18 -24 2 -56 9 -70 15 -15 7 -34
12 -42 14 -91 11 -90 11 -90 -46 0 -38 8 -64 36 -114 35 -64 35 -67 40 -203 5
-150 10 -212 18 -220 11 -11 -15 -42 -29 -37 -10 4 -15 20 -15 48 0 69 -35
242 -75 371 -27 86 -37 138 -37 184 l0 64 -67 69 c-36 37 -70 68 -76 68 -5 0
-30 16 -54 35 -48 39 -52 40 -68 24 -12 -12 -6 -49 9 -49 6 0 8 -9 5 -21 -7
-27 2 -51 16 -42 6 4 8 0 4 -10 -3 -10 -2 -17 4 -17 6 0 7 -4 4 -10 -3 -5 -1
-10 4 -10 6 0 10 -10 10 -22 -1 -13 6 -45 16 -73 10 -29 18 -82 19 -126 0 -43
4 -75 9 -72 4 2 6 -32 4 -77 -2 -57 1 -84 10 -92 7 -6 13 -16 13 -22 0 -7 11
-23 25 -36 14 -13 25 -29 25 -35 0 -31 148 -147 191 -150 23 -2 41 -24 32 -39
-3 -5 -2 -6 4 -3 18 11 73 -32 80 -63 3 -17 9 -30 13 -30 13 0 32 -58 24 -71
-4 -8 -3 -10 4 -5 13 8 54 -52 46 -66 -3 -4 1 -8 10 -8 21 0 71 -53 73 -79 2
-23 -8 -26 -38 -10 -12 6 -18 17 -15 25 3 8 1 12 -4 9 -5 -3 -12 6 -16 20 -3
14 -10 25 -14 25 -4 0 -18 15 -31 34 -13 19 -27 32 -31 30 -4 -3 -30 26 -58
63 -27 37 -68 81 -90 96 -22 16 -37 33 -34 39 4 6 -4 19 -17 28 -21 17 -24 17
-36 2 -8 -12 -12 -13 -13 -4 0 7 -4 10 -10 7 -6 -3 -10 -2 -10 4 0 5 8 15 18
20 9 6 12 11 7 11 -6 0 -16 -5 -21 -10 -6 -6 -19 -8 -29 -4 -16 7 -16 8 -1 19
14 11 14 14 -3 29 -18 17 -20 16 -29 -1 -6 -10 -14 -15 -18 -11 -4 4 -1 14 5
22 11 13 10 15 -7 11 -13 -2 -34 12 -66 46 -25 27 -51 49 -57 49 -6 0 -8 7 -5
16 4 10 2 13 -6 8 -8 -5 -9 -2 -5 10 5 14 3 17 -8 12 -8 -3 -14 -2 -14 2 3 18
-2 32 -12 32 -5 0 -8 -4 -5 -8 3 -5 -1 -9 -8 -9 -8 0 -12 7 -9 15 5 11 1 13
-15 7 -15 -4 -32 1 -51 14 -16 12 -32 21 -35 21 -18 0 -33 27 -26 45 9 25 -33
75 -45 54 -5 -7 -4 -10 3 -5 13 8 26 -10 16 -25 -4 -8 -9 -8 -17 0 -14 14 -47
14 -48 1 -1 -5 -2 -13 -3 -17 -1 -5 -6 -27 -10 -50 -4 -24 -12 -45 -16 -48 -5
-3 -7 -12 -4 -19 3 -7 -6 -26 -19 -42 -24 -29 -36 -63 -43 -118 -2 -15 -12
-45 -22 -65 -26 -55 -19 -151 17 -241 16 -40 34 -76 41 -80 13 -8 11 -200 -2
-200 -5 0 -8 -8 -8 -18 0 -10 -4 -22 -9 -27 -8 -10 -38 -183 -33 -197 1 -5 -2
-8 -8 -8 -12 0 -6 80 14 180 24 121 17 270 -14 300 -3 3 -13 17 -23 32 -30 47
-43 26 -50 -75 -5 -67 -3 -107 8 -147 17 -65 18 -70 6 -70 -16 0 -32 62 -41
164 -10 104 -2 389 10 381 4 -3 8 6 8 19 0 28 29 151 45 189 7 15 16 27 22 27
6 0 5 3 -1 8 -7 4 -13 62 -17 146 -5 138 -5 139 20 164 23 23 23 24 4 19 -18
-4 -22 0 -27 34 -4 22 -11 42 -15 45 -5 3 -9 18 -9 34 0 16 -4 31 -9 35 -11 6
-43 -23 -36 -34 2 -5 -4 -17 -15 -28 -10 -11 -30 -42 -43 -69 -31 -61 -125
-166 -139 -158 -6 4 -8 2 -4 -4 3 -6 -15 -32 -42 -59 -59 -59 -116 -131 -118
-151 -2 -8 -7 -18 -12 -21 -4 -3 -11 -14 -15 -23 -4 -11 -12 -15 -22 -12 -8 3
-15 1 -15 -6 0 -6 3 -9 8 -7 4 3 8 -68 10 -158 2 -109 0 -165 -7 -170 -8 -4
-11 16 -11 64 0 39 1 73 3 75 1 2 -6 13 -17 25 -17 19 -21 19 -47 5 -16 -8
-29 -19 -29 -24 0 -5 -7 -7 -16 -3 -12 4 -15 2 -12 -8 5 -14 -17 -69 -28 -69
-3 0 -2 6 2 13 7 12 -90 -76 -113 -103 -7 -8 -10 -21 -8 -27 2 -7 0 -13 -6
-13 -6 0 -8 -3 -5 -8 2 -4 -4 -25 -14 -47 -10 -21 -16 -44 -13 -51 2 -7 -4
-21 -15 -32 -22 -22 -82 -45 -82 -31 0 5 5 9 12 9 6 0 9 3 5 6 -3 4 5 21 18
38 13 17 28 51 35 76 18 70 44 119 104 195 31 39 64 80 73 93 10 13 26 32 36
43 9 10 14 19 11 19 -4 0 5 15 18 33 21 27 38 58 42 77 1 3 7 14 13 25 6 11
14 64 18 118 6 74 11 100 24 107 14 8 14 9 -1 10 -13 0 -18 9 -19 28 -1 15 -3
42 -5 61 -2 18 0 57 4 85 11 72 8 77 -36 60 -20 -8 -48 -21 -62 -28 -14 -7
-61 -26 -105 -41 -89 -32 -125 -52 -125 -69 0 -6 -36 -49 -80 -96 -52 -55 -80
-93 -80 -108 0 -33 -27 -92 -42 -92 -16 0 -98 -81 -98 -97 0 -7 -4 -13 -8 -13
-8 0 -31 -45 -70 -130 l-11 -25 2 28 c1 15 5 27 9 27 4 0 5 7 2 15 -4 8 -2 15
3 15 5 0 10 12 11 28 3 39 22 92 33 92 5 0 9 6 9 14 0 7 10 21 23 30 12 9 15
14 7 10 -9 -4 -12 -3 -7 2 5 5 14 9 20 9 15 0 57 63 57 87 0 10 11 36 24 57
14 21 22 42 19 45 -4 3 -1 6 6 6 7 0 10 4 7 9 -3 5 12 28 35 52 55 58 50 73
-29 77 -34 2 -62 7 -62 12 0 6 -17 4 -37 -4 -21 -8 -62 -17 -91 -20 -60 -6
-125 -38 -148 -73 -8 -13 -19 -21 -23 -19 -18 11 -96 -112 -116 -181 -3 -13
-11 -23 -17 -23 -5 0 -8 -6 -5 -13 4 -12 -30 -65 -39 -59 -11 6 -44 1 -40 -7
6 -9 -63 -56 -77 -53 -4 1 -6 -1 -5 -5 2 -5 1 -8 -2 -8 -3 0 -18 -12 -33 -27
-24 -24 -47 -36 -47 -24 0 2 27 31 60 64 43 44 65 60 78 55 9 -3 14 -3 10 2
-4 4 4 22 17 39 28 37 85 143 85 160 0 6 7 24 15 39 13 25 13 29 -1 34 -8 3
-43 -2 -77 -11 -34 -9 -66 -17 -70 -16 -4 0 -15 -6 -23 -15 -9 -8 -21 -15 -28
-15 -17 0 -152 128 -148 141 1 6 -2 8 -8 4 -5 -3 -10 -1 -10 5 0 6 -4 9 -8 6
-7 -4 -86 68 -140 128 -13 14 -13 17 -2 11 8 -5 -19 25 -60 66 -89 87 -122
128 -113 142 3 6 1 7 -4 4 -14 -9 -44 38 -37 57 4 11 -2 19 -18 25 -31 12 -60
55 -51 77 5 14 3 16 -12 11 -15 -6 -16 -5 -5 8 11 13 10 14 -5 9 -12 -5 -16
-4 -11 4 3 6 -3 13 -14 17 -17 5 -19 9 -9 21 10 12 10 14 -1 12 -7 -2 -15 3
-18 11 -2 8 0 11 5 8 5 -3 10 0 10 8 0 8 -5 12 -10 8 -5 -3 -6 3 -2 16 3 11 2
21 -3 21 -5 0 -12 9 -15 20 -3 11 -16 24 -29 29 -13 5 -30 17 -38 27 -13 16
-13 17 0 9 9 -5 8 0 -4 13 -36 41 -86 142 -86 173 0 10 -4 19 -10 19 -5 0 -10
8 -10 18 0 10 -4 22 -9 28 -7 7 -28 61 -36 94 -1 3 -9 22 -18 42 -25 55 -23
60 26 53 23 -3 56 -1 72 4 17 5 36 7 43 5 8 -2 20 -4 29 -4z m2663 -1405 c0
-8 -4 -15 -10 -15 -5 0 -7 7 -4 15 4 8 8 15 10 15 2 0 4 -7 4 -15z m1565 -242
c38 -30 37 -52 -1 -26 -24 15 -51 53 -39 53 3 0 21 -12 40 -27z m-674 -550
c46 -47 30 -51 -21 -5 -29 25 -38 39 -27 39 9 0 31 -15 48 -34z m-2054 -37
c-13 -14 -28 -26 -33 -26 -4 0 5 13 21 30 16 16 30 28 32 26 2 -2 -7 -16 -20
-30z"/>
<path d="M4580 8570 c0 -5 5 -10 11 -10 5 0 7 5 4 10 -3 6 -8 10 -11 10 -2 0
-4 -4 -4 -10z"/>
<path d="M4655 8050 c3 -5 8 -10 11 -10 2 0 4 5 4 10 0 6 -5 10 -11 10 -5 0
-7 -4 -4 -10z"/>
<path d="M3744 8529 c-9 -15 -2 -18 20 -9 17 6 18 7 3 13 -9 3 -19 2 -23 -4z"/>
<path d="M2203 7401 c0 -11 5 -18 9 -15 4 3 5 11 1 19 -7 21 -12 19 -10 -4z"/>
<path d="M1885 6610 c3 -5 8 -10 11 -10 2 0 4 5 4 10 0 6 -5 10 -11 10 -5 0
-7 -4 -4 -10z"/>
<path d="M5138 8527 c4 -14 7 -16 13 -5 12 19 11 25 -5 25 -8 0 -11 -8 -8 -20z"/>
<path d="M5167 8533 c-4 -3 -7 -11 -7 -17 0 -6 5 -5 12 2 6 6 9 14 7 17 -3 3
-9 2 -12 -2z"/>
<path d="M5456 7293 c-6 -14 -5 -15 5 -6 7 7 10 15 7 18 -3 3 -9 -2 -12 -12z"/>
<path d="M4804 6828 c-4 -7 -3 -8 5 -4 6 4 20 2 29 -6 15 -12 16 -11 3 5 -16
20 -27 22 -37 5z"/>
<path d="M4835 6750 c-3 -5 -1 -10 4 -10 6 0 11 5 11 10 0 6 -2 10 -4 10 -3 0
-8 -4 -11 -10z"/>
<path d="M4840 5995 l0 -125 63 0 c128 0 177 36 177 130 0 85 -48 120 -165
120 l-75 0 0 -125z"/>
<path d="M2970 5917 c-29 -15 -70 -72 -70 -98 0 -17 10 -19 120 -19 133 0 133
0 106 64 -8 18 -24 41 -37 50 -28 19 -84 21 -119 3z"/>
<path d="M3585 5916 c-34 -15 -58 -46 -69 -88 l-6 -28 121 0 122 0 -6 38 c-12
75 -87 111 -162 78z"/>
<path d="M5544 5901 c-44 -27 -64 -76 -64 -158 1 -117 47 -183 130 -183 83 0
130 66 130 185 0 112 -46 175 -130 175 -19 0 -49 -9 -66 -19z"/>
<path d="M6194 5901 c-41 -25 -64 -85 -64 -167 0 -106 50 -174 130 -174 83 0
130 65 130 180 0 51 -6 82 -20 110 -34 67 -113 90 -176 51z"/>
<path d="M1906 5013 c-6 -14 -5 -15 5 -6 7 7 10 15 7 18 -3 3 -9 -2 -12 -12z"/>
<path d="M6680 4446 c0 -3 9 -10 20 -16 11 -6 20 -8 20 -6 0 3 -9 10 -20 16
-11 6 -20 8 -20 6z"/>
<path d="M4607 4393 c-2 -5 -5 -121 -6 -258 -2 -233 -1 -254 18 -299 23 -53
26 -70 11 -61 -5 3 -10 -1 -10 -10 0 -9 5 -13 10 -10 12 7 42 -20 33 -29 -4
-3 -1 -6 5 -6 6 0 32 -23 59 -51 61 -64 127 -109 159 -109 l25 0 -4 113 c-4
74 -10 122 -21 142 -15 30 -70 155 -72 165 0 3 -6 19 -13 35 -31 71 -42 112
-39 140 1 17 -2 37 -7 45 -5 8 -4 15 2 17 6 2 9 13 6 23 -3 11 -9 17 -14 14
-5 -3 -9 6 -9 19 0 14 -7 30 -15 37 -9 7 -14 19 -11 27 3 8 2 12 -3 9 -4 -3
-21 8 -36 24 -27 28 -59 39 -68 23z"/>
<path d="M2217 4353 c-2 -5 -3 -17 -3 -28 1 -29 30 -25 34 5 2 19 1 22 -7 10
-5 -8 -7 -18 -5 -22 3 -4 0 -8 -6 -8 -6 0 -8 10 -4 25 6 23 0 35 -9 18z"/>
<path d="M4336 4305 c-43 -29 -96 -58 -112 -61 -24 -4 -66 -38 -80 -65 -8 -16
-20 -29 -27 -29 -21 0 -98 -197 -108 -274 -16 -122 -16 -236 0 -245 25 -16
235 232 246 290 3 13 9 25 15 27 5 2 10 9 10 16 0 7 11 25 25 40 14 15 28 39
31 54 4 15 14 38 23 51 15 24 33 221 20 221 -3 0 -23 -11 -43 -25z"/>
<path d="M4439 4253 c-1 -5 -1 -11 0 -15 0 -5 -3 -8 -9 -8 -5 0 -10 -4 -10
-10 0 -6 9 -5 24 1 14 7 22 17 19 25 -5 15 -22 19 -24 7z"/>
<path d="M4396 4233 c-6 -14 -5 -15 5 -6 7 7 10 15 7 18 -3 3 -9 -2 -12 -12z"/>
<path d="M2434 4219 c-4 -7 -3 -9 4 -5 5 3 12 0 15 -6 2 -7 7 -10 11 -7 4 3 0
12 -8 18 -11 9 -16 9 -22 0z"/>
<path d="M5765 3890 c3 -5 11 -10 16 -10 6 0 7 5 4 10 -3 6 -11 10 -16 10 -6
0 -7 -4 -4 -10z"/>
<path d="M5821 3884 c0 -11 3 -14 6 -6 3 7 2 16 -1 19 -3 4 -6 -2 -5 -13z"/>
<path d="M5843 3870 c2 -8 13 -16 25 -16 12 -1 19 3 16 8 -3 4 -10 5 -16 2 -6
-4 -15 0 -20 7 -8 12 -9 11 -5 -1z"/>
<path d="M3020 3771 c0 -6 4 -13 10 -16 6 -3 7 1 4 9 -7 18 -14 21 -14 7z"/>
<path d="M4486 3695 c4 -8 8 -15 10 -15 2 0 4 7 4 15 0 8 -4 15 -10 15 -5 0
-7 -7 -4 -15z"/>
<path d="M4921 3574 c0 -11 3 -14 6 -6 3 7 2 16 -1 19 -3 4 -6 -2 -5 -13z"/>
<path d="M4480 3443 c0 -6 8 -17 18 -24 16 -13 16 -13 2 6 -8 11 -16 22 -17
24 -2 2 -3 0 -3 -6z"/>
<path d="M4450 3105 c0 -2 6 -8 13 -14 10 -8 14 -7 14 2 0 8 -6 14 -14 14 -7
0 -13 -1 -13 -2z"/>
</g>
</svg>
